<svg xmlns="http://www.w3.org/2000/svg" viewBox="0 0 220 220" role="img" aria-labelledby="title desc">
  <title id="title">Parking Building</title>
  <desc id="desc">A colorful multi-level parking building illustration.</desc>
  <defs>
    <linearGradient id="deck" x1="24" y1="0" x2="196" y2="0" gradientUnits="userSpaceOnUse">
      <stop offset="0" stop-color="#dbe7ff"/>
      <stop offset="0.52" stop-color="#f7fbff"/>
      <stop offset="1" stop-color="#c2d2ef"/>
    </linearGradient>
    <linearGradient id="edge" x1="16" y1="0" x2="204" y2="0" gradientUnits="userSpaceOnUse">
      <stop offset="0" stop-color="#b78373"/>
      <stop offset="0.5" stop-color="#f1c7ad"/>
      <stop offset="1" stop-color="#9b6b61"/>
    </linearGradient>
    <linearGradient id="blueCar" x1="0" y1="0" x2="46" y2="0">
      <stop offset="0" stop-color="#1d74d8"/>
      <stop offset="1" stop-color="#67b6ff"/>
    </linearGradient>
    <linearGradient id="orangeCar" x1="0" y1="0" x2="40" y2="0">
      <stop offset="0" stop-color="#ef6a2e"/>
      <stop offset="1" stop-color="#ffc15d"/>
    </linearGradient>
    <linearGradient id="redCar" x1="0" y1="0" x2="40" y2="0">
      <stop offset="0" stop-color="#d64c42"/>
      <stop offset="1" stop-color="#ff9a82"/>
    </linearGradient>
    <filter id="softShadow" x="-20%" y="-20%" width="140%" height="150%">
      <feDropShadow dx="0" dy="8" stdDeviation="7" flood-color="#344767" flood-opacity="0.2"/>
    </filter>
  </defs>
  <g filter="url(#softShadow)">
    <ellipse cx="110" cy="191" rx="78" ry="12" fill="#6b7898" opacity="0.18"/>
    <g fill="#b8c8e2" stroke="#7c8ca7" stroke-width="3">
      <rect x="43" y="54" width="12" height="126" rx="5"/>
      <rect x="88" y="43" width="12" height="126" rx="5"/>
      <rect x="132" y="51" width="12" height="126" rx="5"/>
      <rect x="173" y="67" width="12" height="104" rx="5"/>
    </g>
    <g>
      <path d="M22 65c19-18 136-38 176-13 11 7 9 17-5 22-42 16-135 27-170 9-10-5-10-12-1-18Z" fill="url(#edge)"/>
      <path d="M31 58c24-13 125-29 160-8 8 5 7 12-6 16-40 13-124 21-154 7-8-4-8-10 0-15Z" fill="url(#deck)"/>
    </g>
    <g>
      <path d="M20 103c21-18 141-35 177-12 11 7 9 17-5 22-43 16-136 25-169 8-10-5-11-12-3-18Z" fill="url(#edge)"/>
      <path d="M30 97c25-13 128-27 161-7 8 5 6 12-7 16-39 12-124 19-154 6-8-4-8-10 0-15Z" fill="url(#deck)"/>
    </g>
    <g>
      <path d="M20 140c22-18 143-34 178-11 10 7 8 17-6 22-44 15-136 24-169 7-10-5-11-12-3-18Z" fill="url(#edge)"/>
      <path d="M31 134c26-13 130-26 161-7 8 5 6 12-7 16-40 12-125 18-154 5-8-4-8-10 0-14Z" fill="url(#deck)"/>
    </g>
    <g>
      <path d="M19 176c23-17 143-32 178-10 10 7 8 16-7 22-45 15-136 21-168 6-10-5-11-12-3-18Z" fill="url(#edge)"/>
      <path d="M31 170c27-12 130-24 161-6 8 5 5 12-8 16-40 11-125 17-154 4-8-4-8-10 1-14Z" fill="url(#deck)"/>
    </g>
    <g transform="translate(65 44) rotate(-9)">
      <path d="M6 16h37c5 0 8 3 8 7v4H0v-4c0-4 2-7 6-7Z" fill="url(#blueCar)"/>
      <path d="M13 8h20c5 0 10 4 12 9H5c2-5 5-9 8-9Z" fill="#bde8ff"/>
      <circle cx="11" cy="28" r="5" fill="#23324a"/><circle cx="39" cy="28" r="5" fill="#23324a"/>
    </g>
    <g transform="translate(132 54) rotate(7)">
      <path d="M5 13h34c4 0 7 3 7 7v4H0v-4c0-4 2-7 5-7Z" fill="url(#redCar)"/>
      <path d="M12 6h18c5 0 9 4 10 8H5c2-5 4-8 7-8Z" fill="#ffe0d8"/>
      <circle cx="10" cy="25" r="4" fill="#26334c"/><circle cx="36" cy="25" r="4" fill="#26334c"/>
    </g>
    <g transform="translate(94 101) rotate(-6)">
      <path d="M5 12h32c4 0 7 3 7 6v4H0v-4c0-4 2-6 5-6Z" fill="url(#orangeCar)"/>
      <path d="M11 5h17c4 0 8 3 10 8H5c2-5 4-8 6-8Z" fill="#fff0c6"/>
      <circle cx="10" cy="24" r="4" fill="#26334c"/><circle cx="34" cy="24" r="4" fill="#26334c"/>
    </g>
    <g transform="translate(48 154) rotate(-8)">
      <path d="M6 14h36c4 0 7 3 7 7v4H0v-4c0-4 2-7 6-7Z" fill="url(#blueCar)"/>
      <path d="M13 7h18c5 0 9 3 11 8H6c2-5 4-8 7-8Z" fill="#bde8ff"/>
      <circle cx="10" cy="27" r="4" fill="#26334c"/><circle cx="38" cy="27" r="4" fill="#26334c"/>
    </g>
    <g transform="translate(146 161) rotate(8)">
      <path d="M5 12h33c4 0 7 3 7 6v4H0v-4c0-4 2-6 5-6Z" fill="#eef2f7"/>
      <path d="M12 5h17c4 0 8 3 10 8H5c2-5 4-8 7-8Z" fill="#d7e2f0"/>
      <circle cx="10" cy="24" r="4" fill="#26334c"/><circle cx="35" cy="24" r="4" fill="#26334c"/>
    </g>
  </g>
</svg>
